<?xml version="1.0" encoding="UTF-8" standalone="no"?>
<!-- Generator: Adobe Illustrator 18.1.1, SVG Export Plug-In . SVG Version: 6.00 Build 0)  -->

<svg
   xmlns:dc="http://purl.org/dc/elements/1.1/"
   xmlns:cc="http://creativecommons.org/ns#"
   xmlns:rdf="http://www.w3.org/1999/02/22-rdf-syntax-ns#"
   xmlns:svg="http://www.w3.org/2000/svg"
   xmlns="http://www.w3.org/2000/svg"
   xmlns:sodipodi="http://sodipodi.sourceforge.net/DTD/sodipodi-0.dtd"
   xmlns:inkscape="http://www.inkscape.org/namespaces/inkscape"
   version="1.1"
   id="Ebene_2"
   x="0px"
   y="0px"
   viewBox="0 0 482.29997 78.999997"
   enable-background="new 0 0 566.9 566.9"
   xml:space="preserve"
   inkscape:version="0.91 r13725"
   sodipodi:docname="logo-white-export.svg"
   width="482.29999"
   height="79"><metadata
     id="metadata56"><rdf:RDF><cc:Work
         rdf:about=""><dc:format>image/svg+xml</dc:format><dc:type
           rdf:resource="http://purl.org/dc/dcmitype/StillImage" /><dc:title></dc:title></cc:Work></rdf:RDF></metadata><defs
     id="defs54" /><sodipodi:namedview
     pagecolor="#000000"
     bordercolor="#666666"
     borderopacity="1"
     objecttolerance="10"
     gridtolerance="10"
     guidetolerance="10"
     inkscape:pageopacity="0"
     inkscape:pageshadow="2"
     inkscape:window-width="845"
     inkscape:window-height="480"
     id="namedview52"
     showgrid="false"
     fit-margin-top="0"
     fit-margin-left="0"
     fit-margin-right="0"
     fit-margin-bottom="0"
     inkscape:zoom="0.41629915"
     inkscape:cx="241.15001"
     inkscape:cy="40.049988"
     inkscape:window-x="0"
     inkscape:window-y="0"
     inkscape:window-maximized="0"
     inkscape:current-layer="Ebene_2" /><g
     id="g3"
     transform="translate(-42.3,-244.5)"><g
       enable-background="new    "
       id="g5"><path
         d="m 69.2,323.4 0,-22.5 c -3.1,3.2 -6.7,4.8 -10.8,4.8 -4.6,0 -8.4,-1.7 -11.5,-5.1 -3.1,-3.4 -4.6,-7.7 -4.6,-12.8 0,-5.2 1.5,-9.5 4.6,-13 3.1,-3.5 7,-5.2 11.6,-5.2 4,0 7.5,1.6 10.6,4.7 l 0,-3.7 7.9,0 0,52.9 -7.8,0 z M 50.5,287.5 c 0,3.3 0.9,6 2.7,8 1.8,2.1 4,3.2 6.8,3.2 2.9,0 5.3,-1 7.1,-3 1.8,-2 2.7,-4.7 2.7,-7.9 0,-3.2 -0.9,-5.9 -2.7,-7.9 -1.8,-2 -4.1,-3.1 -7,-3.1 -2.7,0 -5,1 -6.8,3.1 -1.9,2 -2.8,4.6 -2.8,7.6 z"
         id="path7"
         inkscape:connector-curvature="0"
         style="fill:#000000" /><path
         d="m 95.9,270.5 0,19.6 c 0,5.7 2.2,8.5 6.7,8.5 4.5,0 6.7,-2.8 6.7,-8.5 l 0,-19.6 7.9,0 0,19.8 c 0,2.7 -0.3,5.1 -1,7.1 -0.7,1.8 -1.8,3.4 -3.4,4.8 -2.7,2.3 -6.1,3.5 -10.2,3.5 -4.1,0 -7.5,-1.2 -10.2,-3.5 -1.6,-1.4 -2.8,-3 -3.5,-4.8 -0.7,-1.6 -1,-4 -1,-7.1 l 0,-19.8 8,0 z"
         id="path9"
         inkscape:connector-curvature="0"
         style="fill:#000000" /><path
         d="m 152.4,270.5 7.9,0 0,34.2 -7.9,0 0,-3.6 c -3.3,3 -6.8,4.6 -10.5,4.6 -4.7,0 -8.6,-1.7 -11.7,-5.1 -3.1,-3.5 -4.6,-7.8 -4.6,-13.1 0,-5.1 1.5,-9.4 4.6,-12.8 3.1,-3.4 6.9,-5.1 11.5,-5.1 4,0 7.6,1.6 10.7,4.9 l 0,-4 z m -18.7,17.1 c 0,3.3 0.9,6 2.6,8 1.8,2.1 4.1,3.1 6.8,3.1 2.9,0 5.3,-1 7.1,-3 1.8,-2.1 2.7,-4.7 2.7,-7.9 0,-3.2 -0.9,-5.9 -2.7,-7.9 -1.8,-2 -4.1,-3.1 -7,-3.1 -2.7,0 -5,1 -6.8,3.1 -1.8,2 -2.7,4.6 -2.7,7.7 z"
         id="path11"
         inkscape:connector-curvature="0"
         style="fill:#000000" /><path
         d="m 170.4,270.5 7.9,0 0,3.2 c 2.8,-2.7 5.9,-4.1 9.3,-4.1 4,0 7.1,1.3 9.3,3.8 1.9,2.1 2.9,5.6 2.9,10.4 l 0,21 -7.9,0 0,-19.1 c 0,-3.4 -0.5,-5.7 -1.4,-7 -0.9,-1.3 -2.6,-2 -5,-2 -2.6,0 -4.5,0.9 -5.6,2.6 -1.1,1.7 -1.6,4.7 -1.6,9 l 0,16.5 -7.9,0 0,-34.3 z"
         id="path13"
         inkscape:connector-curvature="0"
         style="fill:#000000" /><path
         d="m 218,277.9 0,26.9 -7.9,0 0,-26.9 -3.4,0 0,-7.4 3.4,0 0,-12.5 7.9,0 0,12.5 6.2,0 0,7.4 -6.2,0 z"
         id="path15"
         inkscape:connector-curvature="0"
         style="fill:#000000" /><path
         d="m 228.3,256.3 c 0,-1.4 0.5,-2.6 1.5,-3.6 1,-1 2.2,-1.5 3.6,-1.5 1.4,0 2.6,0.5 3.7,1.5 1,1 1.5,2.2 1.5,3.6 0,1.4 -0.5,2.6 -1.5,3.7 -1,1 -2.2,1.5 -3.6,1.5 -1.4,0 -2.6,-0.5 -3.7,-1.5 -1,-1 -1.5,-2.2 -1.5,-3.7 z m 9.1,14.2 0,34.2 -7.9,0 0,-34.2 7.9,0 z"
         id="path17"
         inkscape:connector-curvature="0"
         style="fill:#000000" /><path
         d="m 255.6,277.9 0,26.9 -7.9,0 0,-26.9 -2.8,0 0,-7.4 2.8,0 0,-13.2 c 0,-4.3 0.7,-7.4 2.2,-9.1 2.1,-2.5 5.1,-3.7 9,-3.7 1.4,0 3.2,0.4 5.3,1.2 l 0,8.1 -0.8,-0.4 c -1.7,-0.9 -3.1,-1.3 -4.2,-1.3 -1.4,0 -2.4,0.5 -2.8,1.5 -0.5,1 -0.7,2.9 -0.7,5.7 l 0,11.3 8.6,0 0,7.4 -8.7,0 z"
         id="path19"
         inkscape:connector-curvature="0"
         style="fill:#000000" /><path
         d="m 269.1,256.3 c 0,-1.4 0.5,-2.6 1.5,-3.6 1,-1 2.2,-1.5 3.6,-1.5 1.4,0 2.6,0.5 3.7,1.5 1,1 1.5,2.2 1.5,3.6 0,1.4 -0.5,2.6 -1.5,3.7 -1,1 -2.2,1.5 -3.6,1.5 -1.4,0 -2.6,-0.5 -3.7,-1.5 -1,-1 -1.5,-2.2 -1.5,-3.7 z m 9.1,14.2 0,34.2 -7.9,0 0,-34.2 7.9,0 z"
         id="path21"
         inkscape:connector-curvature="0"
         style="fill:#000000" /><path
         d="m 319.4,289.5 -24.5,0 c 0.2,2.8 1.1,5 2.7,6.7 1.6,1.6 3.7,2.5 6.2,2.5 2,0 3.6,-0.5 4.9,-1.4 1.3,-0.9 2.7,-2.7 4.3,-5.2 l 6.7,3.7 c -1,1.8 -2.1,3.3 -3.3,4.5 -1.1,1.3 -2.4,2.3 -3.7,3.1 -1.3,0.8 -2.7,1.4 -4.3,1.8 -1.5,0.4 -3.2,0.6 -5,0.6 -5.1,0 -9.2,-1.6 -12.3,-4.9 -3.1,-3.3 -4.6,-7.7 -4.6,-13.1 0,-5.4 1.5,-9.8 4.5,-13.1 3,-3.3 7,-5 12,-5 5,0 9,1.6 11.9,4.8 2.9,3.2 4.4,7.6 4.4,13.2 l 0.1,1.8 z m -8.1,-6.4 c -1.1,-4.2 -3.8,-6.3 -8,-6.3 -1,0 -1.9,0.1 -2.7,0.4 -0.8,0.3 -1.6,0.7 -2.3,1.3 -0.7,0.6 -1.3,1.2 -1.8,2 -0.5,0.8 -0.9,1.7 -1.1,2.6 l 15.9,0 z"
         id="path23"
         inkscape:connector-curvature="0"
         style="fill:#000000" /><path
         d="m 353.3,245.4 7.9,0 0,59.4 -7.9,0 0,-3.6 c -3.1,3 -6.6,4.6 -10.6,4.6 -4.7,0 -8.6,-1.7 -11.7,-5.1 -3.1,-3.5 -4.6,-7.8 -4.6,-13.1 0,-5.1 1.5,-9.4 4.6,-12.8 3,-3.4 6.9,-5.2 11.5,-5.2 4,0 7.6,1.6 10.8,4.9 l 0,-29.1 z m -18.8,42.2 c 0,3.3 0.9,6 2.6,8 1.8,2.1 4.1,3.1 6.8,3.1 2.9,0 5.3,-1 7.1,-3 1.8,-2.1 2.7,-4.7 2.7,-7.9 0,-3.2 -0.9,-5.9 -2.7,-7.9 -1.8,-2 -4.1,-3.1 -7,-3.1 -2.7,0 -5,1 -6.8,3.1 -1.8,2 -2.7,4.6 -2.7,7.7 z"
         id="path25"
         inkscape:connector-curvature="0"
         style="fill:#000000" /><path
         d="m 397.8,272 0,10.5 c -1.8,-2.2 -3.4,-3.7 -4.9,-4.5 -1.4,-0.8 -3.1,-1.3 -5,-1.3 -3,0 -5.4,1 -7.4,3.1 -2,2.1 -3,4.7 -3,7.8 0,3.2 0.9,5.8 2.8,7.9 1.9,2.1 4.4,3.1 7.3,3.1 1.9,0 3.6,-0.4 5,-1.2 1.4,-0.8 3.1,-2.3 5,-4.6 l 0,10.4 c -3.2,1.7 -6.4,2.5 -9.6,2.5 -5.3,0 -9.7,-1.7 -13.3,-5.1 -3.6,-3.4 -5.3,-7.7 -5.3,-12.8 0,-5.1 1.8,-9.4 5.4,-12.9 3.6,-3.5 8,-5.3 13.3,-5.3 3.6,0 6.7,0.8 9.7,2.4 z"
         id="path27"
         inkscape:connector-curvature="0"
         style="fill:#000000" /><path
         d="m 475.2,245.4 7.9,0 0,59.4 -7.9,0 0,-3.6 c -3.1,3 -6.6,4.6 -10.6,4.6 -4.7,0 -8.6,-1.7 -11.7,-5.1 -3.1,-3.5 -4.6,-7.8 -4.6,-13.1 0,-5.1 1.5,-9.4 4.6,-12.8 3,-3.4 6.9,-5.2 11.5,-5.2 4,0 7.6,1.6 10.8,4.9 l 0,-29.1 z m -18.8,42.2 c 0,3.3 0.9,6 2.6,8 1.8,2.1 4.1,3.1 6.8,3.1 2.9,0 5.3,-1 7.1,-3 1.8,-2.1 2.7,-4.7 2.7,-7.9 0,-3.2 -0.9,-5.9 -2.7,-7.9 -1.8,-2 -4.1,-3.1 -7,-3.1 -2.7,0 -5,1 -6.8,3.1 -1.8,2 -2.7,4.6 -2.7,7.7 z"
         id="path29"
         inkscape:connector-curvature="0"
         style="fill:#000000" /><path
         d="m 524.3,289.5 -24.5,0 c 0.2,2.8 1.1,5 2.7,6.7 1.6,1.6 3.7,2.5 6.2,2.5 2,0 3.6,-0.5 4.9,-1.4 1.3,-0.9 2.7,-2.7 4.3,-5.2 l 6.7,3.7 c -1,1.8 -2.1,3.3 -3.3,4.5 -1.1,1.3 -2.4,2.3 -3.7,3.1 -1.3,0.8 -2.7,1.4 -4.3,1.8 -1.5,0.4 -3.2,0.6 -5,0.6 -5.1,0 -9.2,-1.6 -12.3,-4.9 -3.1,-3.3 -4.6,-7.7 -4.6,-13.1 0,-5.4 1.5,-9.8 4.5,-13.1 3,-3.3 7,-5 12,-5 5,0 9,1.6 11.9,4.8 2.9,3.2 4.4,7.6 4.4,13.2 l 0.1,1.8 z m -8.2,-6.4 c -1.1,-4.2 -3.8,-6.3 -8,-6.3 -1,0 -1.9,0.1 -2.7,0.4 -0.8,0.3 -1.6,0.7 -2.3,1.3 -0.7,0.6 -1.3,1.2 -1.8,2 -0.5,0.8 -0.9,1.7 -1.1,2.6 l 15.9,0 z"
         id="path31"
         inkscape:connector-curvature="0"
         style="fill:#000000" /></g><g
       id="g7989_1_"
       transform="matrix(0.1078507,0,0,0.1120905,8.3587129,-164.19007)"
       inkscape:export-ydpi="637.08002"
       inkscape:export-xdpi="637.08002"><g
         id="g8361_1_"
         inkscape:export-ydpi="50.741367"
         inkscape:export-xdpi="50.741367"
         inkscape:export-filename="/media/D/Dropbox/QuantifiedCode/Assets/Logo/code-is-beautiful/g7989.png"><path
           id="code_hierarchy74-6_1_"
           pointer-events="all"
           inkscape:connector-curvature="0"
           d="m 3853.8,3872.1 c 88,0.9 158.6,73 157.7,160.9 -0.4,34.2 -11.7,67.3 -32.3,94.6 l -60.5,-45.8 c 27.8,-36.7 20.6,-89.1 -16.1,-116.9 -14.3,-10.8 -31.8,-16.7 -49.6,-16.9 l 0.8,-75.9 z"
           style="fill:#f68b4a"><title
             id="title8364">flask-07-upgrade.py,2</title></path></g><g
         id="g8366_1_"
         inkscape:export-ydpi="50.741367"
         inkscape:export-xdpi="50.741367"
         inkscape:export-filename="/media/D/Dropbox/QuantifiedCode/Assets/Logo/code-is-beautiful/g7989.png"><path
           id="code_hierarchy75-5_1_"
           pointer-events="all"
           inkscape:connector-curvature="0"
           d="m 3977.2,4130.1 c -34.3,43.4 -88.6,66 -143.5,59.6 l 8.8,-75.4 c 28.8,3.4 57.2,-8.4 75.2,-31.2 l 59.5,47 z"
           style="fill:#f9a870"><title
             id="title8369">flaskext_compat.py,2</title></path></g><g
         id="g8371_1_"
         inkscape:export-ydpi="50.741367"
         inkscape:export-xdpi="50.741367"
         inkscape:export-filename="/media/D/Dropbox/QuantifiedCode/Assets/Logo/code-is-beautiful/g7989.png"><path
           id="code_hierarchy76-7_1_"
           pointer-events="all"
           inkscape:connector-curvature="0"
           d="m 3830.5,4189.3 c -87.2,-11.9 -148.2,-92.3 -136.2,-179.5 3,-21.6 10.3,-42.3 21.6,-60.9 l 64.9,39.3 c -23.9,39.4 -11.2,90.7 28.2,114.6 9.7,5.9 20.6,9.7 31.9,11.3 l -10.4,75.2 z"
           style="fill:#fdca9d"><title
             id="title8374">flaskext_test.py,2</title></path></g><g
         id="g8376_1_"
         inkscape:export-ydpi="50.741367"
         inkscape:export-xdpi="50.741367"
         inkscape:export-filename="/media/D/Dropbox/QuantifiedCode/Assets/Logo/code-is-beautiful/g7989.png"><path
           id="code_hierarchy77-8_1_"
           pointer-events="all"
           inkscape:connector-curvature="0"
           d="m 3717.5,3946.2 c 23.5,-37 61.1,-62.7 104.1,-71.1 l 14.6,74.4 c -22.5,4.4 -42.2,17.9 -54.5,37.3 l -64.2,-40.6 z"
           style="fill:#2daf66"><title
             id="title8379">make-release.py,2</title></path></g><g
         id="g8381_1_"
         inkscape:export-ydpi="50.741367"
         inkscape:export-xdpi="50.741367"
         inkscape:export-filename="/media/D/Dropbox/QuantifiedCode/Assets/Logo/code-is-beautiful/g7989.png"><path
           id="code_hierarchy78-9_1_"
           pointer-events="all"
           inkscape:connector-curvature="0"
           d="m 3824.7,3874.5 c 8.5,-1.5 17.2,-2.3 25.9,-2.4 l 0.8,75.9 c -4.5,0 -9.1,0.5 -13.6,1.2 l -13.1,-74.7 z"
           style="fill:#6ec283"><title
             id="title8384">testproj,2</title></path></g><g
         id="g8391_1_"
         inkscape:export-ydpi="50.741367"
         inkscape:export-xdpi="50.741367"
         inkscape:export-filename="/media/D/Dropbox/QuantifiedCode/Assets/Logo/code-is-beautiful/g7989.png"><path
           id="code_hierarchy80-1_1_"
           pointer-events="none"
           inkscape:connector-curvature="0"
           d="m 3846.4,3872.2 c 1.4,-0.1 2.8,-0.1 4.2,-0.1 l 0.8,75.9 c -0.8,0 -1.5,0 -2.2,0.1 l -2.8,-75.9 z"
           style="fill:#bbdfbd;fill-opacity:0"><title
             id="title8394">setup.py,1</title></path></g></g></g></svg>